<?xml version="1.0" standalone="no"?>
<!DOCTYPE svg PUBLIC "-//W3C//DTD SVG 20010904//EN"
 "http://www.w3.org/TR/2001/REC-SVG-20010904/DTD/svg10.dtd">
<svg version="1.0" xmlns="http://www.w3.org/2000/svg"
 width="700.000000pt" height="700.000000pt" viewBox="0 0 700.000000 700.000000"
 preserveAspectRatio="xMidYMid meet">
<metadata>
Created by potrace 1.11, written by Peter Selinger 2001-2013
</metadata>
<g transform="translate(0.000000,700.000000) scale(0.100000,-0.100000)"
fill="#000000" stroke="none">
<path d="M3298 6995 c-1 -1 -41 -5 -88 -9 -100 -7 -225 -22 -295 -36 -27 -5
-61 -12 -75 -14 -358 -66 -734 -204 -1060 -389 -366 -209 -642 -436 -944 -777
-100 -113 -279 -367 -373 -530 -158 -275 -309 -656 -369 -933 -20 -90 -53
-272 -59 -322 -4 -33 -9 -69 -11 -80 -19 -100 -26 -567 -11 -715 12 -109 27
-226 41 -295 2 -11 6 -36 10 -55 49 -272 156 -595 283 -857 449 -928 1280
-1612 2270 -1868 72 -19 142 -36 155 -39 13 -2 60 -11 106 -20 46 -9 111 -19
145 -22 34 -3 65 -8 68 -9 15 -10 227 -20 409 -20 187 0 339 7 430 21 144 21
295 48 345 61 33 8 67 16 75 18 109 22 388 117 550 188 119 51 305 146 352
178 14 11 29 19 33 19 13 0 268 174 367 251 176 137 321 275 508 484 63 70
201 257 276 371 310 477 503 1040 552 1609 14 164 7 569 -13 705 -3 19 -7 56
-10 81 -3 25 -7 54 -9 65 -2 10 -11 60 -21 109 -138 740 -533 1435 -1104 1943
-237 211 -436 349 -721 500 -279 147 -691 288 -985 336 -33 5 -224 32 -295 42
-47 6 -526 15 -532 9z m512 -519 c19 -3 55 -8 80 -11 25 -3 71 -10 102 -16 32
-5 70 -12 85 -15 68 -12 206 -47 298 -75 273 -84 493 -188 770 -362 42 -26
282 -208 320 -243 314 -284 534 -570 706 -914 109 -218 209 -495 245 -675 2
-11 8 -42 14 -70 5 -27 12 -66 15 -85 3 -19 7 -46 10 -60 29 -150 41 -550 22
-725 -17 -157 -25 -211 -47 -320 -64 -314 -166 -585 -335 -890 -30 -55 -191
-299 -209 -318 -6 -7 -33 -39 -58 -72 -206 -264 -521 -535 -833 -714 -297
-171 -623 -291 -970 -355 -11 -2 -45 -7 -75 -11 -30 -4 -64 -9 -74 -11 -101
-19 -512 -26 -661 -11 -70 7 -193 25 -290 42 -357 65 -779 241 -1101 460 -83
57 -216 156 -234 175 -3 3 -23 20 -45 39 -70 59 -212 199 -277 274 -35 40 -66
74 -69 77 -3 3 -46 59 -96 125 -306 409 -504 897 -568 1400 -16 130 -20 201
-20 385 0 178 5 278 20 380 2 14 6 43 9 65 2 22 12 78 21 125 10 47 19 95 21
107 7 36 73 265 86 298 7 17 13 35 14 40 5 22 79 196 124 290 410 855 1249
1486 2180 1641 52 8 106 17 120 20 14 2 61 6 105 10 44 3 82 8 84 10 5 5 471
-4 511 -10z"/>
<path d="M3367 6094 c-1 -1 -36 -5 -77 -8 -105 -9 -268 -34 -310 -48 -94 -30
-146 -92 -163 -193 -11 -62 -9 -79 21 -225 40 -192 46 -243 46 -385 0 -142
-19 -270 -53 -350 -46 -110 -114 -214 -176 -268 -46 -41 -125 -86 -195 -112
-62 -22 -95 -28 -190 -30 -120 -3 -183 6 -308 45 -66 20 -124 47 -342 161
-110 58 -170 76 -250 73 -107 -3 -187 -55 -231 -154 -66 -144 -155 -393 -173
-485 -3 -11 -9 -40 -15 -65 -21 -90 -12 -139 36 -188 37 -39 178 -57 306 -40
203 27 420 14 562 -34 275 -93 431 -296 439 -572 8 -247 -106 -521 -324 -781
-71 -85 -191 -205 -252 -253 -124 -97 -199 -206 -203 -295 -4 -76 20 -121 119
-224 120 -126 251 -235 415 -344 177 -118 280 -169 346 -171 106 -2 185 31
247 102 52 58 86 128 133 270 75 229 181 415 314 549 119 122 230 188 359 214
80 17 228 15 262 -3 11 -6 20 -9 20 -6 0 3 17 -2 38 -10 168 -70 264 -148 389
-316 51 -69 141 -232 168 -306 7 -20 31 -88 53 -149 81 -226 173 -326 293
-318 116 7 444 235 669 465 114 117 113 115 127 165 30 101 -16 213 -134 326
-333 321 -421 430 -526 651 -121 255 -132 499 -32 704 79 163 250 281 478 330
80 17 307 26 383 14 305 -48 424 -15 426 118 1 138 -184 661 -273 772 -91 113
-232 100 -429 -40 -67 -47 -226 -128 -315 -158 -145 -51 -333 -63 -456 -30
-262 70 -420 276 -463 601 -19 144 -14 255 21 462 47 283 -26 453 -214 499
-54 13 -88 18 -233 32 -51 5 -329 11 -333 8z m263 -1679 c131 -15 322 -94 426
-175 321 -253 446 -657 319 -1037 -78 -232 -263 -439 -480 -538 -66 -31 -165
-66 -165 -60 0 3 -12 0 -26 -6 -27 -10 -137 -22 -204 -23 -140 -1 -317 43
-439 110 -433 238 -605 761 -396 1209 130 279 414 486 713 521 32 3 58 7 59 8
5 4 132 -1 193 -9z"/>
<path d="M3395 3948 c-16 -5 -38 -11 -48 -13 -80 -18 -208 -127 -252 -216 -41
-79 -53 -131 -53 -220 0 -129 43 -234 133 -324 181 -180 469 -180 650 0 159
159 179 403 50 591 -85 123 -220 192 -376 192 -40 -1 -87 -5 -104 -10z"/>
</g>
</svg>
